<?xml version="1.0" encoding="utf-8"?>
<!-- Generator: Adobe Illustrator 24.2.0, SVG Export Plug-In . SVG Version: 6.00 Build 0)  -->
<svg version="1.1" id="avatar" xmlns="http://www.w3.org/2000/svg" xmlns:xlink="http://www.w3.org/1999/xlink" x="0px" y="0px"
	 viewBox="0 0 1087 908" style="enable-background:new 0 0 1087 908;" xml:space="preserve">
<style type="text/css">
	.st0{fill:url(#SVGID_1_);}
	.st1{fill:url(#SVGID_2_);stroke:#2D2D20;stroke-miterlimit:10;}
	.st2{fill:#2D2D20;}
	.st3{fill:#BF2854;}
	.st4{fill:#FFCEA4;}
	.st5{fill:#FFFFFF;}
	.st6{fill:#FFFFFF;stroke:#FFFFFF;stroke-miterlimit:10;}
	.st7{fill:#FFD8CF;stroke:#FFCCCC;stroke-miterlimit:10;}
	.st8{fill:none;stroke:#2D2D20;stroke-miterlimit:10;}
	.st9{fill:#FFCEA4;stroke:#FFCCCC;stroke-miterlimit:10;}
</style>
<linearGradient id="SVGID_1_" gradientUnits="userSpaceOnUse" x1="513.9194" y1="916.1926" x2="596.2274" y2="-180.3395">
	<stop  offset="0" style="stop-color:#FFFFFF"/>
	<stop  offset="0.0322" style="stop-color:#FDFDFF"/>
	<stop  offset="0.0438" style="stop-color:#F6F8FD"/>
	<stop  offset="0.049" style="stop-color:#F0F3FC"/>
	<stop  offset="0.123" style="stop-color:#D4DCF1"/>
	<stop  offset="0.3021" style="stop-color:#94A9D8"/>
	<stop  offset="0.4735" style="stop-color:#5F7FC4"/>
	<stop  offset="0.6322" style="stop-color:#365EB4"/>
	<stop  offset="0.7756" style="stop-color:#1847A8"/>
	<stop  offset="0.8987" style="stop-color:#0638A1"/>
	<stop  offset="0.9873" style="stop-color:#00339F"/>
</linearGradient>
<rect x="6" y="3" class="st0" width="1085" height="905"/>
<linearGradient id="SVGID_2_" gradientUnits="userSpaceOnUse" x1="242.131" y1="875.874" x2="261.0708" y2="-213.1321">
	<stop  offset="0" style="stop-color:#FFFFFF"/>
	<stop  offset="0.188" style="stop-color:#C1CCEE"/>
	<stop  offset="0.4062" style="stop-color:#7F96DD"/>
	<stop  offset="0.6045" style="stop-color:#4B6BCF"/>
	<stop  offset="0.7758" style="stop-color:#254DC4"/>
	<stop  offset="0.9134" style="stop-color:#0E3ABE"/>
	<stop  offset="1" style="stop-color:#0633BC"/>
</linearGradient>
<path class="st1" d="M242.94,733.11c0.27-0.4,0.55-0.79,0.82-1.19c0.64-5.95,1.56-11.85,2.92-17.67c0.07-0.3,0.15-0.6,0.22-0.91
	c-1.32,2.05-2.35,4.29-3.02,6.68C242.68,724.27,242.57,728.7,242.94,733.11z"/>
<path class="st2" d="M809.5,622.5c-7.28-34.87-34.54-44.34-42-69c-17.9-59.16,13.85-85.24,3-155c-6.92-44.53-26.58-77.15-50-116
	c-26.44-43.86-42.07-62.8-64-83c-88.35-81.39-200.34-38.41-235,0C399.11,224.31,387,226,378,231
	c-41.35,22.97-63.43,59.11-78.5,111.5C289,379,319.97,446.57,297,518c-9.8,30.49-0.62,38.58-13.5,95.5c-14.3,63.21-11.11,76.74-4,96
	c37.7,102.09,515.48,37.24,531-49C813.71,642.66,809.5,622.5,809.5,622.5z M676.52,622.69c-0.82,2.84-3.45,3.86-6.15,3.49
	c-3.42-0.46-6.39-2.12-9.28-3.91c-0.2-0.12-0.4-0.25-0.59-0.37c-4.01-0.4-7.78-0.75-11.4-2.69c-3.74-2-2.94-8.18,1.19-9.14
	c4.52-1.05,8.59-0.44,12.68,1.69c3.4,1.76,6.15,4.25,10.06,4.78C675.7,616.9,677.19,620.37,676.52,622.69z"/>
<path class="st3" d="M436,733c8.68,54.99,23.98,126.49,40.11,175.5H128.52c59.68-205.71,107.93-240.84,133.98-246
	c11.64-2.31,23-4,23-4c54.78-8.17,101.29-5.58,121.15-18.34c0.32-0.21,0.64-0.42,0.96-0.64C398.58,686.29,395.38,767.19,405,769
	c9.16,1.73,23.83-47.56,29-46C436.77,723.83,434.48,723.36,436,733z"/>
<path class="st4" d="M597,679c-18.76,19.11-33.38,16.5-49,40c-16.03,24.12-13.17,45.73-20,46c-8.22,0.32-23.44-30.53-15-54
	c3.35-9.31,9.96-16.19,7-21c-2.66-4.32-10.26-2.49-18-3c-31.9-2.1-57.61-43.34-68-60c-2.48-3.98-4.33-7.27-5.78-9.96
	c0.19-0.35,0.28-0.54,0.28-0.54c0.05-0.1,0.08-0.17,0.11-0.24c1.55-3.27,26.06-39.03,4.39-59.26c-15-14-5-4-25-31
	c-20.32-27.43-10.56-64.91-33-72c-11.48-3.63-11.94-2.96-18-13c-7.52-12.46-11.34-25.04-14.5-39.5c-0.92-4.21-0.58-27.93,8.5-31.5
	c7.79-3.06,19,12,19.5,4.5c0.47-7.09,2.33-20.53,7.5-39.5c6-22,29-24,34-28c44.02-14.68,46.58-47.38,49-44c5,7-0.62,6.19,14.5,17.5
	c21.63,16.18,40.72,24.18,57,31c15.11,6.33,50.75,21.26,95,23c12.65,0.5,33.29-0.34,46,14c6.21,7.01,8.65,13.97,8.65,13.97
	c2.87,8.16,1.92,14.82,3.35,15.03c2.42,0.36,3.08-18.95,12-22c6.97-2.38,17.72,5.6,22,15c3.41,7.49,1.65,15.09-2,30
	c-4.38,17.89-6.72,27.43-15,36c-8.58,8.88-37.16,11.95-26,10c6.83-1.19-3.93,42.7-9,52C647.37,535.45,654,524,624,557
	c-10.29,11.32,8.38,42.12,12.39,46.53c-1.4-0.37-2.55-0.48-3.39-0.53C624.29,602.55,631.89,643.44,597,679z"/>
<path class="st5" d="M675,669c-1.99-14.6,14-42-4-60c-2.99-2.99-5.42-1.65-6.77,0.2c-8.87-3.49-24.4-3.12-27.27-6.52
	c-0.16-0.19-0.35-0.4-0.57-0.65c-1.4-0.37-2.55-0.48-3.39-0.53c-8.71-0.45-1.11,40.44-36,76c-18.76,19.11-33.38,16.5-49,40
	c-16.03,24.12-13.17,45.73-20,46c-8.22,0.32-23.44-30.53-15-54c3.35-9.31,9.96-16.19,7-21c-2.66-4.32-10.26-2.49-18-3
	c-31.9-2.1-57.61-43.34-68-60c-2.48-3.98-4.33-7.27-5.78-9.96c-1.35,2.58-7.82,13.92-20.61,22.48
	c-9.03,46.77-12.23,127.67-2.61,129.48c9.16,1.73,23.83-47.56,29-46c2.77,0.83,0.48,0.36,2,10c8.68,54.99,23.98,126.49,40.11,175.5
	H599.1c9.76-41.34,15.46-103.65,27.9-155c1.72-7.09-0.59-29.35,5-31.5c8.2-3.15,30.46,59.63,38,51.5C682.32,758.7,684,735,675,669z
	 M670.37,624.18c-3.42-0.46-6.39-2.12-9.28-3.91c-0.2-0.12-0.4-0.25-0.59-0.37c-4.01-0.4-7.78-0.75-11.4-2.69
	c-3.74-2-2.94-8.18,1.19-9.14c4.52-1.05,8.59-0.44,12.68,1.69c3.4,1.76,6.15,4.25,10.06,4.78c2.67,0.36,4.16,3.83,3.49,6.15
	C675.71,623.53,673.07,624.55,670.37,624.18z"/>
<path class="st6" d="M428.22,617.04c-1.35,2.58-7.82,13.92-20.61,22.48c3.66-18.95,8.28-32.3,13.39-32.52
	C423.37,606.9,424.27,609.7,428.22,617.04z"/>
<path class="st6" d="M476.11,908.5H599.1c-5.62,23.78-10.94,41.11-16.1,46.5c-14.42,15.05-51.85,19.13-58,18
	c-1.78-0.33-16.31-5.14-23-11C493.73,954.75,484.8,934.89,476.11,908.5z"/>
<path class="st6" d="M665.5,611.5c-8.38-4.36-25.47-3.68-28.54-7.32c-0.16-0.19-0.35-0.4-0.57-0.65
	C640.59,604.6,658.98,601.32,665.5,611.5z"/>
<path class="st6" d="M307.5,746.5"/>
<path class="st7" d="M578.5,251.5"/>
<path class="st2" d="M1294,555"/>
<path class="st8" d="M543.5,1035.5"/>
<path class="st9" d="M852.5,807.5"/>
<path class="st9" d="M458.5,902.5"/>
<path class="st9" d="M42.5,995.5"/>
<path class="st3" d="M809.5,663c-20.71-8.77-93.28-29.86-131.3-40.67c2.09,3.68-4.88,0.65-6.2,7.67c-3,16-5.93,17.81-4.5,28
	c6.84,48.6,10.21,98.43-0.5,101.5c-10.66,3.05-31.8-45.15-40-42c-5.59,2.15-2.98,24.99-5,32c-15,52-18.14,113.16-27.9,154.5h362.4
	C954.64,815.73,873.76,690.2,809.5,663z"/>
<g>
	<g>
		<path class="st5" d="M653.57,613.55c-1.67,2.19-3.34,4.06-3.41,6.98c-0.07,2.89,1.85,5.84,4.75,6.62c5.87,1.6,10.3-4.56,8.83-9.9
			c-1.34-4.86-7.66-7.88-12.45-8.05c-6.03-0.21-10.15,5.96-7.08,11.31c3.16,5.5,10.53,2.55,11.09-3c0.03-0.28,0.06-0.55,0.08-0.83
			c-0.58,1.4-1.16,2.81-1.74,4.21c0.65-0.81,2.17-1.25,2.99-2.02c0.54-0.59,1.04-1.21,1.51-1.86c1.39-2.58,0.39-2.23-3.01,1.05
			c0.46,0.67,3.27,0.97,4.14,1.71c1.12,0.95,1.59,1.86,1.2,3.29c-0.99,3.55,1.85,7.77,5.74,7.54c8.47-0.51,12.6-11.09,7.71-17.86
			c-4.11-5.69-13.53-9.03-20.25-9.06c-7.66-0.03-7.67,11.88,0,11.91c2.82,0.01,5.17,0.92,7.6,2.33c0.36,0.21,2.95,2.04,3.06,1.95
			c0.74,0.52,0.55-0.02-0.55-1.63c-0.33,1.34-0.18,1.74,0.46,1.2c1-0.27,2-0.54,3-0.81c-0.34,0.02-0.68,0.04-1.02,0.06
			c1.91,2.51,3.83,5.02,5.74,7.54c2.59-9.31-4.27-17.26-13.04-19.49c-4.21-1.07-8.07-0.3-10.68,3.36c-1.7,2.37,1.13,0.41-0.02,0.06
			c-0.43-0.13-2.45,1.64-2.42,1.62c-1.64,1.62-2.17,3.52-2.39,5.74c3.7-1,7.4-2,11.09-3c-0.12-0.2-0.23-0.4-0.35-0.6
			c0.2,1.53,0.4,3.06,0.6,4.59c-0.49,0.61-0.98,1.22-1.47,1.83c-1,0.27-2,0.54-3,0.81c0.71-0.01,1.29,0.48,1.98,0.59
			c2.34,0.39-0.24,1.16-0.12-1.55c0.27-1,0.54-2,0.81-3c0.37-0.31,0.73-0.61,1.1-0.92c1-0.27,2-0.54,3-0.81
			c-0.19,0.01-0.37,0.02-0.56,0.03c1.4,0.58,2.81,1.16,4.21,1.74c-0.14-0.16-0.28-0.33-0.43-0.49c0.58,1.4,1.16,2.81,1.74,4.21
			c0.03-0.26,0.06-0.52,0.1-0.78c-0.27,1-0.54,2-0.81,3c0.69-1.3,1.67-2.42,2.55-3.59c1.96-2.58,0.39-6.63-2.14-8.14
			C658.68,609.6,655.51,611,653.57,613.55L653.57,613.55z"/>
	</g>
</g>
<g>
	<g>
		<path class="st5" d="M667.96,628.68c0.23,0,0.45,0,0.68,0c0.82,0.03,1.58-0.14,2.29-0.51c0.74-0.24,1.38-0.65,1.92-1.23
			c0.58-0.54,0.99-1.18,1.23-1.92c0.37-0.71,0.54-1.47,0.51-2.29c-0.07-0.53-0.14-1.06-0.21-1.58c-0.28-1.01-0.79-1.88-1.53-2.63
			c-0.4-0.31-0.8-0.62-1.2-0.93c-0.93-0.54-1.93-0.81-3-0.81c-0.23,0-0.45,0-0.68,0c-0.82-0.03-1.58,0.14-2.29,0.51
			c-0.74,0.24-1.38,0.65-1.92,1.23c-0.58,0.54-0.99,1.18-1.23,1.92c-0.37,0.71-0.54,1.47-0.51,2.29c0.07,0.53,0.14,1.06,0.21,1.58
			c0.28,1.01,0.79,1.88,1.53,2.63c0.4,0.31,0.8,0.62,1.2,0.93C665.88,628.4,666.88,628.67,667.96,628.68L667.96,628.68z"/>
	</g>
</g>
<g>
	<g>
		<path class="st5" d="M668.3,628.68c7.66,0,7.67-11.91,0-11.91C660.64,616.77,660.62,628.68,668.3,628.68L668.3,628.68z"/>
	</g>
</g>
<g>
	<g>
		<path class="st5" d="M674.77,623.56c0.07,0,0.14,0,0.21,0.01c-0.13-0.02-0.27-0.04-0.4-0.05c0.13,0.02,0.24,0.05,0.36,0.1
			c-0.12-0.05-0.24-0.1-0.36-0.15c0.1,0.04,0.19,0.1,0.28,0.16c-0.1-0.08-0.2-0.16-0.3-0.23c0.1,0.08,0.19,0.16,0.27,0.26
			c-0.08-0.1-0.16-0.2-0.23-0.3c0.04,0.06,0.08,0.12,0.11,0.18c0.68-0.68,1.37-1.37,2.05-2.05c-0.01-0.01-0.03-0.02-0.04-0.03
			c0.1,0.08,0.2,0.16,0.3,0.23c-0.16-0.13-0.3-0.27-0.43-0.43c0.08,0.1,0.16,0.2,0.23,0.3c-0.13-0.18-0.25-0.37-0.33-0.58
			c0.05,0.12,0.1,0.24,0.15,0.36c-0.08-0.21-0.14-0.42-0.18-0.64c0.02,0.13,0.04,0.27,0.05,0.4c-0.03-0.22-0.03-0.44,0-0.66
			c-0.93,0.25-1.86,0.5-2.8,0.76c0.08,0.15,0.15,0.31,0.22,0.47c-0.05-0.12-0.1-0.24-0.15-0.36c0.23,0.54,0.38,1.1,0.46,1.68
			c-0.02-0.13-0.04-0.27-0.05-0.4c0.07,0.52,0.07,1.03,0.02,1.55c-0.04,0.36,0.19,0.82,0.44,1.06c0.26,0.26,0.69,0.46,1.06,0.44
			c0.39-0.02,0.79-0.14,1.06-0.44c0.28-0.31,0.4-0.64,0.44-1.06c0.16-1.53-0.2-3.1-0.91-4.45c-0.29-0.56-1.09-0.89-1.69-0.69
			c-0.25,0.08-0.47,0.21-0.66,0.39c-0.31,0.29-0.39,0.67-0.44,1.06c-0.09,0.71,0.1,1.42,0.38,2.06c0.29,0.66,0.78,1.15,1.35,1.58
			c0.12,0.05,0.24,0.1,0.36,0.15c0.2,0.06,0.4,0.07,0.6,0.03c0.31-0.04,0.64-0.17,0.86-0.41c0.47-0.51,0.56-1.21,0.23-1.82
			c-0.47-0.9-1.51-1.49-2.53-1.45c-0.39,0.02-0.78,0.16-1.06,0.44c-0.26,0.26-0.46,0.69-0.44,1.06c0.02,0.39,0.14,0.79,0.44,1.06
			C673.99,623.38,674.37,623.58,674.77,623.56L674.77,623.56z"/>
	</g>
</g>
<g>
	<g>
		<path class="st5" d="M673.18,623.02c-0.8,1.13-1.6,2.26-2.4,3.39c-0.21,0.3-0.25,0.81-0.15,1.16c0.1,0.35,0.36,0.72,0.69,0.9
			c0.35,0.18,0.77,0.28,1.16,0.15c0.39-0.13,0.66-0.36,0.9-0.69c0.8-1.13,1.6-2.26,2.4-3.39c0.21-0.3,0.25-0.81,0.15-1.16
			c-0.1-0.35-0.36-0.72-0.69-0.9c-0.35-0.18-0.77-0.28-1.16-0.15C673.69,622.46,673.42,622.69,673.18,623.02L673.18,623.02z"/>
	</g>
</g>
<g>
	<g>
		<path class="st5" d="M672.78,628.9c0.45-0.57,0.9-1.14,1.36-1.71c0.15-0.14,0.25-0.3,0.31-0.48c0.09-0.18,0.14-0.37,0.13-0.58
			c0.01-0.21-0.04-0.4-0.13-0.58c-0.06-0.19-0.16-0.35-0.31-0.48c-0.29-0.26-0.66-0.46-1.06-0.44c-0.13,0.02-0.27,0.04-0.4,0.05
			c-0.25,0.07-0.47,0.2-0.66,0.39c-0.45,0.57-0.9,1.14-1.36,1.71c-0.15,0.14-0.25,0.3-0.31,0.48c-0.09,0.18-0.14,0.37-0.13,0.58
			c-0.01,0.21,0.04,0.4,0.13,0.58c0.06,0.19,0.16,0.35,0.31,0.48c0.29,0.26,0.66,0.46,1.06,0.44c0.13-0.02,0.27-0.04,0.4-0.05
			C672.37,629.22,672.59,629.09,672.78,628.9L672.78,628.9z"/>
	</g>
</g>
<g>
	<g>
		<path class="st5" d="M675.45,626.61c1.93,0,1.93-3,0-3C673.52,623.61,673.51,626.61,675.45,626.61L675.45,626.61z"/>
	</g>
</g>
<g>
	<g>
		<path class="st5" d="M1219.65,1110.21c1.93,0,1.93-3,0-3C1217.72,1107.21,1217.71,1110.21,1219.65,1110.21L1219.65,1110.21z"/>
	</g>
</g>
<g>
	<g>
		<path class="st5" d="M673.57,623.11c2.43,27.04,1.61,54.38-2.53,81.21c-1.17,7.56-2.6,15.07-4.27,22.53
			c-0.42,1.88,2.47,2.68,2.89,0.8c5.99-26.67,8.77-54.07,8.19-81.4c-0.16-7.73-0.6-15.44-1.29-23.14
			C676.4,621.2,673.4,621.18,673.57,623.11L673.57,623.11z"/>
	</g>
</g>
<g>
	<g>
		<path class="st5" d="M668.19,638.37c-0.57,8.66-0.02,17.33,1.58,25.86c0.32,1.69,2.95,1.26,2.95-0.4
			c-0.02-10.05-0.03-20.1-0.05-30.15c-1,0-2,0-3,0c0.02,8.74,0.04,17.49,0.06,26.23c1,0,2,0,3,0c-0.75-10.83-0.32-21.73,1.36-32.46
			c-0.98-0.13-1.96-0.27-2.95-0.4c0.02,7.55,0.04,15.1,0.06,22.65c0,1.93,3,1.93,3,0c0-6.53-0.01-13.06-0.01-19.6c-1,0-2,0-3,0
			c0.6,12.49,1.21,24.97,1.81,37.46c0.09,1.92,3.06,1.94,3,0c-0.11-3.62-0.23-7.24-0.34-10.86c-1,0-2,0-3,0
			c0.72,5.63,0.3,11.27-1.29,16.73c0.96,0,1.93,0,2.89,0c-2.83-7.05-5.65-14.1-8.48-21.14c-0.51-1.26-2.51-1.58-2.89,0
			c-1.33,5.52-0.99,11.32,1.09,16.61c0.48,1.22,1.97,1.47,2.74,0.36c2.66-3.84,1.38-8.46,0.99-12.75c-0.24-2.56,0.2-7.59,3.55-8.03
			c0.88-0.12,1.39-0.6,1.5-1.5c0.34-2.87-1.97-5.22-4.72-5.49c-0.58-0.06-1.36,0.5-1.45,1.1c-1.77,12.5-2.25,25.12-1.35,37.71
			c0.98-0.13,1.96-0.27,2.95-0.4c-0.67-3.41-0.04-6.89,1.7-9.89c-0.91-0.12-1.83-0.24-2.74-0.36c1.14,3.59,1.45,7.28,0.97,11.02
			c1,0,2,0,3,0c0.01-1.85,0.01-3.69,0.02-5.54c0.01-1.93-2.99-1.93-3,0c-0.04,5.89-0.07,11.79-0.11,17.68
			c-0.01,1.64,2.68,2.11,2.95,0.4c0.55-3.49,1.1-6.99,1.65-10.48c-0.98-0.13-1.96-0.27-2.95-0.4c0,4,0,8,0,12c1,0,2,0,3,0
			c0-4.87,0-9.74,0-14.61c0-1.93-3-1.93-3,0c0,2.22,0,4.44,0,6.66c0,1.93,3,1.93,3,0c0-3.23,0-6.47,0-9.7c0-1.93-3-1.93-3,0
			c0,3.23,0,6.47,0,9.7c0,1.93,3,1.93,3,0c0-2.22,0-4.44,0-6.66c-1,0-2,0-3,0c0,4.87,0,9.74,0,14.61c0,1.93,3,1.93,3,0c0-4,0-8,0-12
			c0-1.63-2.68-2.11-2.95-0.4c-0.55,3.49-1.1,6.99-1.65,10.48c0.98,0.13,1.96,0.27,2.95,0.4c0.04-5.89,0.07-11.79,0.11-17.68
			c-1,0-2,0-3,0c-0.01,1.85-0.01,3.69-0.02,5.54c-0.01,1.99,2.76,1.85,3,0c0.52-3.97,0.14-8-1.07-11.82
			c-0.38-1.21-2.08-1.51-2.74-0.36c-2.16,3.72-2.83,7.99-2,12.2c0.32,1.65,3.07,1.29,2.95-0.4c-0.87-12.31-0.48-24.7,1.25-36.91
			c-0.48,0.37-0.96,0.73-1.45,1.1c1.25,0.12,1.85,1.38,1.72,2.49c0.5-0.5,1-1,1.5-1.5c-4.31,0.56-6.2,4.55-6.56,8.51
			c-0.41,4.49,2.23,9.7-0.57,13.76c0.91,0.12,1.83,0.24,2.74,0.36c-1.89-4.8-2.31-9.99-1.09-15.01c-0.96,0-1.93,0-2.89,0
			c2.83,7.05,5.65,14.1,8.48,21.14c0.53,1.31,2.45,1.53,2.89,0c1.65-5.68,2.14-11.65,1.39-17.52c-0.24-1.85-3.06-1.99-3,0
			c0.11,3.62,0.23,7.24,0.34,10.86c1,0,2,0,3,0c-0.6-12.49-1.21-24.97-1.81-37.46c-0.09-1.92-3-1.94-3,0
			c0,6.53,0.01,13.06,0.01,19.6c1,0,2,0,3,0c-0.02-7.55-0.04-15.1-0.06-22.65c0-1.63-2.68-2.12-2.95-0.4
			c-1.72,11-2.24,22.14-1.47,33.26c0.13,1.91,3,1.95,3,0c-0.02-8.74-0.04-17.49-0.06-26.23c0-1.93-3-1.93-3,0
			c0.02,10.05,0.03,20.1,0.05,30.15c0.98-0.13,1.96-0.27,2.95-0.4c-1.55-8.26-2.02-16.67-1.47-25.06
			C671.32,636.44,668.32,636.45,668.19,638.37L668.19,638.37z"/>
	</g>
</g>
<g>
	<g>
		<path class="st5" d="M667.04,656.06c0.31,1.99,1.78,3.41,2.33,5.29c0.6,2.07,0.35,4.49,0.38,6.63c0.02,1.67,2.51,2.06,2.95,0.4
			c0.27-1.03,0.54-2.06,0.81-3.09c-0.48,0.37-0.96,0.73-1.45,1.1c0.04,0,0.08,0,0.12,0c-0.48-0.37-0.96-0.73-1.45-1.1
			c0.02,0.05,0.04,0.1,0.06,0.15c0.05-0.39,0.1-0.77,0.15-1.16c-0.02,0.05-0.05,0.09-0.07,0.14c0.43-0.25,0.86-0.5,1.3-0.74
			c0.44,0.02,0.05-0.15-0.11-0.32c-0.25-0.27-0.58-0.5-0.86-0.74c-0.52-0.44-1.03-0.89-1.55-1.33c-1.28-1.1-3.18,0.26-2.36,1.82
			c2.89,5.47,4.75,11.45,5.41,17.6c0.2,1.9,3.21,1.92,3,0c-0.72-6.71-2.66-13.15-5.82-19.12c-0.79,0.61-1.57,1.21-2.36,1.82
			c0.8,0.69,1.61,1.38,2.41,2.08c0.7,0.6,1.25,1.16,2.23,1.2c0.5,0.02,1.06-0.29,1.3-0.74c0.24-0.46,0.37-0.94,0.16-1.44
			c-0.26-0.62-0.73-1.1-1.45-1.1c-0.04,0-0.08,0-0.12,0c-0.65,0-1.28,0.46-1.45,1.1c-0.27,1.03-0.54,2.06-0.81,3.09
			c0.98,0.13,1.96,0.27,2.95,0.4c-0.03-2.31,0.13-4.73-0.38-7c-0.46-2.07-2.11-3.64-2.44-5.72
			C669.63,653.36,666.74,654.17,667.04,656.06L667.04,656.06z"/>
	</g>
</g>
<g>
	<g>
		<path class="st5" d="M669.68,675.46c1,5,1.27,10.1,0.87,15.17c-0.06,0.81,0.73,1.5,1.5,1.5c0.86,0,1.44-0.69,1.5-1.5
			c0.42-5.35,0.07-10.71-0.98-15.97c-0.16-0.79-1.1-1.25-1.85-1.05C669.9,673.84,669.52,674.66,669.68,675.46L669.68,675.46z"/>
	</g>
</g>
<g>
	<g>
		<path class="st5" d="M673.19,617.06c1.94,3.59,2.78,7.83,2.24,11.89c-0.11,0.8,0.19,1.61,1.05,1.85c0.7,0.19,1.74-0.24,1.85-1.05
			c0.66-4.91-0.17-9.83-2.54-14.2C674.87,613.85,672.27,615.36,673.19,617.06L673.19,617.06z"/>
	</g>
</g>
<g>
	<g>
		<path class="st5" d="M675.22,629.62c0,1.02,0,2.04,0,3.06c0,0.38,0.17,0.79,0.44,1.06c0.26,0.26,0.69,0.46,1.06,0.44
			c0.81-0.04,1.5-0.66,1.5-1.5c0-1.02,0-2.04,0-3.06c0-0.38-0.17-0.79-0.44-1.06c-0.26-0.26-0.69-0.46-1.06-0.44
			C675.91,628.15,675.22,628.78,675.22,629.62L675.22,629.62z"/>
	</g>
</g>
<g>
	<g>
		<path class="st5" d="M677.46,635.23c0-0.17,0-0.34,0-0.51c0.01-0.21-0.04-0.4-0.13-0.58c-0.06-0.19-0.16-0.35-0.31-0.48
			c-0.14-0.15-0.3-0.25-0.48-0.31c-0.18-0.09-0.37-0.14-0.58-0.13c-0.13,0.02-0.27,0.04-0.4,0.05c-0.25,0.07-0.47,0.2-0.66,0.39
			c-0.08,0.1-0.16,0.2-0.23,0.3c-0.14,0.23-0.2,0.49-0.2,0.76c0,0.17,0,0.34,0,0.51c-0.01,0.21,0.04,0.4,0.13,0.58
			c0.06,0.19,0.16,0.35,0.31,0.48c0.14,0.15,0.3,0.25,0.48,0.31c0.18,0.09,0.37,0.14,0.58,0.13c0.13-0.02,0.27-0.04,0.4-0.05
			c0.25-0.07,0.47-0.2,0.66-0.39c0.08-0.1,0.16-0.2,0.23-0.3C677.39,635.76,677.46,635.5,677.46,635.23L677.46,635.23z"/>
	</g>
</g>
<g>
	<g>
		<path class="st5" d="M675.96,636.48c1.93,0,1.93-3,0-3C674.03,633.48,674.02,636.48,675.96,636.48L675.96,636.48z"/>
	</g>
</g>
<g>
	<g>
		<path class="st5" d="M676.72,636.99c1.93,0,1.93-3,0-3C674.79,633.99,674.79,636.99,676.72,636.99L676.72,636.99z"/>
	</g>
</g>
<g>
	<g>
		<path class="st5" d="M676.72,636.99c1.93,0,1.93-3,0-3C674.79,633.99,674.79,636.99,676.72,636.99L676.72,636.99z"/>
	</g>
</g>
<g>
	<g>
		<path class="st5" d="M676.47,635.97c1.93,0,1.93-3,0-3C674.54,632.97,674.53,635.97,676.47,635.97L676.47,635.97z"/>
	</g>
</g>
</svg>
